<svg width="694" height="497" viewBox="0 0 694 497" fill="none" xmlns="http://www.w3.org/2000/svg">
<g clip-path="url(#clip0_28_4)">
<path d="M561.645 316.239C562.265 316.296 562.888 316.162 563.43 315.854C563.971 315.545 564.405 315.078 564.671 314.516C564.938 313.953 565.026 313.322 564.922 312.708C564.817 312.094 564.527 311.527 564.09 311.084C564.027 310.776 563.983 310.556 563.92 310.248C563.951 310.183 563.981 310.118 564.012 310.054C564.707 308.604 565.816 307.393 567.198 306.571C568.58 305.749 570.174 305.354 571.78 305.435C573.387 305.515 574.933 306.068 576.226 307.025C577.519 307.981 578.5 309.297 579.046 310.809C581.229 316.842 584.084 322.916 584.564 329.21C584.774 331.992 584.501 334.789 583.754 337.477C590.117 325.156 593.754 311.611 594.419 297.762C594.582 294.286 594.55 290.805 594.324 287.333C594.137 284.486 593.824 281.654 593.387 278.837C590.997 263.548 585.011 249.044 575.921 236.515C571.368 233.751 567.773 229.658 565.619 224.789C564.838 223.038 564.315 221.184 564.066 219.284C564.59 219.377 565.123 219.445 565.649 219.504C565.812 219.521 565.985 219.537 566.149 219.554L566.21 219.559C566.788 219.612 567.369 219.497 567.883 219.228C568.397 218.958 568.823 218.546 569.108 218.041C569.393 217.536 569.526 216.959 569.49 216.38C569.455 215.801 569.253 215.245 568.908 214.778C568.694 214.488 568.479 214.198 568.265 213.908C567.939 213.46 567.605 213.02 567.279 212.573C567.241 212.53 567.206 212.485 567.173 212.438C566.798 211.927 566.424 211.425 566.049 210.915C566.827 209.824 567.846 208.927 569.028 208.294C573.12 206.148 578.539 208.018 581.248 211.752C583.966 215.486 584.275 220.561 583.063 225.012C581.9 228.793 580.1 232.349 577.742 235.527C577.945 235.813 578.158 236.091 578.361 236.378C582.072 241.634 585.26 247.242 587.877 253.12C587.475 246.652 588.616 240.182 591.205 234.241C593.806 228.713 598.41 224.17 602.497 219.477C607.406 213.839 616.793 216.836 617.264 224.294C617.269 224.366 617.273 224.438 617.278 224.51C616.689 224.807 616.112 225.124 615.546 225.461C614.835 225.889 614.27 226.522 613.925 227.277C613.58 228.032 613.471 228.873 613.613 229.691C613.754 230.509 614.14 231.265 614.719 231.859C615.298 232.454 616.043 232.861 616.857 233.025L616.941 233.042C616.64 235.097 616.184 237.126 615.576 239.112C613.823 244.654 610.943 249.774 607.117 254.152C603.292 258.529 598.602 262.07 593.343 264.551C592.998 264.708 592.661 264.866 592.317 265.014C594.833 273.356 596.252 281.989 596.54 290.697C596.693 295.834 596.431 300.974 595.755 306.069L595.789 305.889C597.16 300.253 600.435 295.262 605.062 291.76C611.93 286.638 621.37 285.073 628.71 281.04C629.491 280.589 630.385 280.37 631.286 280.41C632.188 280.45 633.059 280.746 633.797 281.264C634.535 281.783 635.11 282.501 635.453 283.335C635.796 284.169 635.893 285.083 635.733 285.971C635.721 286.034 635.708 286.097 635.695 286.16C634.611 286.543 633.552 286.994 632.524 287.509C631.936 287.806 631.359 288.123 630.793 288.46C630.082 288.888 629.516 289.521 629.172 290.276C628.827 291.031 628.718 291.872 628.86 292.69C629.001 293.508 629.387 294.264 629.966 294.858C630.545 295.453 631.29 295.86 632.104 296.024L632.188 296.041C632.248 296.052 632.299 296.064 632.359 296.075C630.339 300.327 627.602 304.2 624.267 307.525C620.152 311.545 615.257 314.684 609.885 316.747C604.512 318.81 598.775 319.755 593.024 319.524L593.015 319.524C591.139 326.228 588.57 332.719 585.351 338.893L561.247 337.771C561.173 337.5 561.108 337.22 561.043 336.949C563.267 337.192 565.514 337.163 567.731 336.862C566.045 334.586 564.359 332.293 562.673 330.017C562.635 329.974 562.6 329.929 562.567 329.882C561.712 328.718 560.848 327.561 559.993 326.397L559.993 326.396C560.105 322.953 560.66 319.54 561.644 316.239L561.645 316.239Z" fill="#F2F2F2"/>
<path d="M75.9797 107.97C75.3641 108.066 74.7339 107.97 74.1745 107.696C73.6151 107.422 73.1536 106.982 72.8525 106.437C72.5514 105.892 72.4252 105.268 72.4911 104.649C72.557 104.03 72.8117 103.446 73.2208 102.976C73.2641 102.665 73.2951 102.442 73.3383 102.131C73.3039 102.069 73.2693 102.006 73.2346 101.943C72.4511 100.54 71.27 99.3987 69.8397 98.6638C68.4094 97.9289 66.7937 97.6327 65.1955 97.8124C63.5972 97.9921 62.0878 98.6397 60.8567 99.6739C59.6257 100.708 58.7279 102.083 58.2762 103.625C56.4698 109.781 53.996 116.02 53.9066 122.331C53.8684 125.121 54.3147 127.896 55.2257 130.533C48.1132 118.628 43.6457 105.334 42.1261 91.552C41.7483 88.0933 41.5644 84.6161 41.5752 81.1369C41.5866 78.2843 41.7234 75.4384 41.9856 72.5992C43.426 57.192 48.5035 42.3459 56.801 29.2802C61.1744 26.24 64.5101 21.9334 66.3586 16.9406C67.0296 15.1451 67.4371 13.262 67.5682 11.3499C67.0512 11.4756 66.5228 11.5765 66.0021 11.6679C65.8397 11.6942 65.6687 11.7215 65.5062 11.7478L65.4449 11.7573C64.8713 11.8458 64.2843 11.7667 63.7546 11.5296C63.225 11.2925 62.7752 10.9075 62.4594 10.4209C62.1436 9.93432 61.9753 9.36688 61.9748 8.78693C61.9743 8.20698 62.1415 7.63925 62.4564 7.15207C62.6525 6.84898 62.8488 6.54602 63.0452 6.24319C63.3424 5.77622 63.6491 5.31693 63.9463 4.85003C63.9815 4.8049 64.0142 4.75779 64.044 4.70894C64.3863 4.17623 64.7293 3.65216 65.0716 3.11945C64.2277 2.07826 63.1546 1.2459 61.9359 0.687273C57.7197 -1.20158 52.4263 0.999297 49.9531 4.89306C47.4713 8.78769 47.4768 13.8726 48.9613 18.2402C50.3567 21.9423 52.3726 25.3801 54.9225 28.4063C54.7374 28.7047 54.5428 28.9953 54.3578 29.2936C50.9781 34.7693 48.1435 40.5629 45.8948 46.5911C45.8959 40.1114 44.3574 33.724 41.406 27.9543C38.4682 22.5975 33.592 18.3471 29.2228 13.915C23.9748 8.59138 14.7903 12.1619 14.7812 19.6344C14.7811 19.7068 14.7812 19.7791 14.7815 19.8514C15.387 20.111 15.9827 20.3917 16.5685 20.6934C17.3048 21.0771 17.908 21.6741 18.2991 22.4062C18.6901 23.1383 18.8506 23.9713 18.7597 24.7962C18.6688 25.621 18.3307 26.3992 17.7896 27.0287C17.2485 27.6583 16.5297 28.1098 15.7275 28.3242L15.6453 28.3462C16.0722 30.3788 16.6532 32.376 17.3831 34.3206C19.4751 39.7435 22.6658 44.676 26.755 48.8089C30.8442 52.9419 35.7437 56.1862 41.1466 58.3384C41.5006 58.4737 41.8461 58.61 42.1992 58.7368C40.2038 67.2182 39.3207 75.9229 39.5719 84.6318C39.7365 89.7681 40.3165 94.8827 41.3063 99.9255L41.2609 99.7479C39.5441 94.2073 35.9664 89.4285 31.1318 86.2185C23.96 81.5301 14.4421 80.551 6.86673 76.9792C6.05919 76.577 5.15338 76.4139 4.25613 76.5093C3.35888 76.6046 2.50762 76.9543 1.80275 77.5171C1.09789 78.08 0.568804 78.8326 0.277917 79.686C-0.0129698 80.5395 -0.0535349 81.4583 0.161011 82.334C0.177411 82.3962 0.193982 82.4584 0.210712 82.5205C1.31639 82.8363 2.40129 83.2207 3.45914 83.6713C4.0647 83.931 4.66036 84.2117 5.24611 84.5133C5.98248 84.897 6.58569 85.494 6.97669 86.2261C7.3677 86.9582 7.52826 87.7913 7.43735 88.6161C7.34644 89.441 7.00831 90.2192 6.46723 90.8487C5.92616 91.4782 5.20739 91.9298 4.4051 92.1442L4.32289 92.1661C4.26365 92.1812 4.21298 92.1955 4.15384 92.2106C6.43273 96.3301 9.40425 100.027 12.9383 103.139C17.2946 106.898 22.3734 109.728 27.8632 111.456C33.353 113.183 39.1381 113.772 44.8639 113.187L44.8725 113.186C47.1598 119.761 50.1249 126.081 53.7198 132.044L77.7082 129.437C77.7653 129.161 77.8127 128.878 77.8611 128.603C75.6559 128.984 73.4123 129.094 71.1804 128.93C72.7226 126.554 74.263 124.161 75.8052 121.785C75.8405 121.74 75.8731 121.693 75.903 121.644C76.6842 120.429 77.475 119.222 78.2561 118.007L78.2565 118.006C77.9319 114.577 77.167 111.204 75.9805 107.971L75.9797 107.97Z" fill="#F2F2F2"/>
<path d="M407.399 99.0874C408.587 99.4138 409.688 99.9964 410.626 100.794C411.563 101.592 412.315 102.585 412.826 103.705C413.338 104.824 413.598 106.041 413.588 107.272C413.578 108.502 413.298 109.716 412.768 110.826L425.641 125.127L418.851 135.063L400.956 114.613C399.148 113.599 397.775 111.958 397.097 110C396.418 108.043 396.483 105.904 397.277 103.991C398.071 102.077 399.54 100.521 401.406 99.6171C403.271 98.7134 405.404 98.5249 407.399 99.0874Z" fill="#A0616A"/>
<path d="M527.912 134.203C526.752 132.315 525.23 130.676 523.434 129.377C521.638 128.079 519.603 127.147 517.446 126.637C515.289 126.126 513.052 126.046 510.863 126.401C508.675 126.756 506.579 127.539 504.694 128.705L462.358 154.905L416.691 116.116L405.329 126.687L455.778 192.091L521.348 157.935C519.818 158.732 529.761 137.21 527.912 134.203Z" fill="#CCCCCC"/>
<path d="M444.044 221.319C444.049 242.211 439.933 262.9 431.934 282.203C423.934 301.506 412.207 319.045 397.422 333.818C382.638 348.592 365.085 360.31 345.767 368.303C326.449 376.296 305.744 380.408 284.835 380.404C196.908 380.404 125.626 309.178 125.626 221.319C125.611 204.229 128.353 187.248 133.746 171.03C144.334 139.356 164.619 111.81 191.733 92.2863C218.846 72.7625 251.415 62.2494 284.835 62.2335C313.658 62.2235 341.942 70.0346 366.669 84.8329C391.396 99.6313 411.637 120.861 425.231 146.257C428.602 152.523 431.542 159.01 434.032 165.674C434.377 166.602 434.713 167.53 435.04 168.467V168.476C436.5 172.594 437.785 176.789 438.897 181.061C442.325 194.206 444.055 207.735 444.044 221.319Z" fill="#3F3D56"/>
<path d="M267.416 113.986C260.262 110.12 252.318 107.937 244.191 107.605C236.063 107.273 227.968 108.8 220.521 112.069C213.964 114.92 207.06 120.035 204.872 129.272C213.719 124.055 225.171 132.297 227.447 145.52L226.916 145.667C225.713 154.825 228.397 164.797 233.594 170.476C234.276 164.577 238.158 160.562 241.976 158.054C245.794 155.546 250.017 153.725 252.932 149.414C256.386 144.303 257.264 136.835 258.636 130.021C260.009 123.208 262.612 115.884 267.416 113.986Z" fill="white"/>
<path d="M217.897 191.923C215.447 195.6 212.174 197.907 209.237 200.779C206.31 203.66 203.524 207.549 202.94 212.543C202.568 215.742 203.143 218.994 203.064 222.229C202.984 225.464 201.905 229.105 199.703 229.909C196.226 231.164 193.573 224.713 190 224.262C187.16 223.908 184.604 228.372 185.427 232.243C186.249 236.114 190.115 237.828 192.335 235.301C194.343 238.668 192.927 244.775 189.911 245.809C189.593 247.93 189.274 250.043 188.965 252.164C181.34 246.834 173.637 241.417 167.153 233.612C159.943 225.007 155.47 214.444 154.31 203.28C153.47 194.31 154.717 184.049 150.595 177.146C147.296 171.622 141.635 170.403 136.541 170.747C135.612 170.809 134.675 170.915 133.746 171.03C136.75 162.013 140.566 153.287 145.147 144.958C146.183 144.513 147.147 143.914 148.004 143.181C152.745 139.16 154.85 131.02 158.697 125.39C158.945 125.028 159.202 124.674 159.467 124.33C163.403 119.195 168.675 116.552 173.769 114.095C185.047 108.624 196.651 103.083 208.556 103.843L205.169 104.17C201.215 115.235 197.258 126.301 193.299 137.366C192.697 139.063 192.09 140.763 191.477 142.465C189.23 148.758 186.913 155.457 187.258 162.501C187.461 166.673 188.912 171.127 191.671 172.559C194.245 173.885 197.058 172.259 199.543 170.65C200.596 169.978 201.64 169.307 202.692 168.626C206.469 166.196 210.653 163.703 214.642 165.329C218.295 166.814 220.992 171.772 221.505 177.12C221.976 182.317 220.706 187.524 217.897 191.923Z" fill="white"/>
<path d="M240.359 267.469C229.329 260.682 218.298 253.896 207.268 247.11L207.455 246.628C200.597 249.238 197.749 261.419 198.883 271.381C200.016 281.343 203.859 290.248 205.801 299.955C208.419 313.238 207.431 326.979 202.939 339.752C217.444 323.49 230.28 305.815 241.255 286.994C242.789 284.622 243.957 282.034 244.721 279.315C245.422 276.423 245.314 272.945 243.911 270.626C243.008 269.295 241.787 268.21 240.359 267.469Z" fill="white"/>
<path d="M196.825 144.005C195.654 146.636 195.203 150.145 196.266 152.868C197.352 155.649 199.647 156.905 201.76 157.952L207.854 160.971C209.882 161.975 212.068 162.989 214.135 162.163C216.628 161.166 218.356 157.261 217.909 153.635C217.433 149.777 214.999 147.123 212.748 144.863C209.598 141.7 206.448 138.538 203.298 135.375L201.523 137.548C199.603 139.419 198.014 141.602 196.825 144.005Z" fill="white"/>
<path d="M411.371 185.251C414.113 185.896 416.855 186.541 419.597 187.186C419.119 196.44 414.529 205.004 408.373 208.106C405.808 209.396 402.951 209.873 400.828 212.286C398.909 214.478 397.936 217.889 397.042 221.151C395.477 226.842 393.911 232.534 392.346 238.226C390.665 244.36 388.507 251.174 384.138 253.383C380.387 255.283 376.098 252.959 373.214 249.061C370.331 245.164 368.571 239.923 366.863 234.814C366.97 240.382 364.378 245.844 360.707 247.78C357.028 249.715 352.552 247.965 350.093 243.644C348.324 240.542 347.59 236.449 345.857 233.303C344.123 230.157 340.488 228.354 338.595 231.306C337.348 233.268 337.507 236.273 336.888 238.765C335.924 242.636 333.005 245.067 330.113 245.279C327.229 245.491 324.416 243.829 322.002 241.576C317.022 236.909 313.351 229.503 311.927 221.274C311.299 217.607 311.123 213.612 312.211 210.174C313.298 206.736 315.925 204.084 318.535 204.739C320.251 201.115 316.863 196.307 313.811 196.731C310.751 197.155 308.354 200.434 305.842 202.953C303.339 205.472 299.836 207.301 297.316 204.8C297.333 207.125 295.44 208.663 293.804 208.468C292.177 208.283 290.726 206.975 289.231 206.046C283.456 202.449 276.123 204.836 272.019 211.641C274.584 200.735 278.343 188.22 286.224 185.657C289.444 184.605 292.955 185.471 295.998 183.651C301.384 180.425 302.472 168.237 297.82 163.208C298.412 167.963 298.297 173.513 295.785 176.766C293.273 180.018 288.002 177.897 288.32 173.089C287.595 176.404 283.986 176.907 282.323 174.362C280.652 171.817 280.793 167.654 281.978 164.614C283.164 161.573 285.18 159.39 287.135 157.296C291.336 152.797 295.6 148.245 300.464 145.417C305.338 142.589 310.963 141.635 315.846 144.445C318.42 145.93 320.684 148.405 323.311 149.713C325.938 151.029 329.272 150.862 331.015 147.786C332.97 144.357 332.05 139.266 332.775 134.979C334.075 127.405 341.655 123.861 345.857 128.863C342.717 128.059 339.471 131.771 339.081 136.27C338.683 140.768 340.957 145.311 343.999 146.672C349.112 148.935 354.118 143.243 357.983 137.976C362.016 132.461 366.056 126.949 370.101 121.44C370.747 120.502 371.472 119.62 372.268 118.806C373.535 117.572 375.223 116.865 376.992 116.829C378.761 116.793 380.477 117.43 381.794 118.611C385.88 121.943 387.799 128.775 391.152 133.477C396.016 140.309 403.296 141.97 410.071 143.296C415.121 144.277 420.175 145.264 425.231 146.257C428.602 152.523 431.542 159.01 434.032 165.674C425.47 169.307 417.571 176.103 411.371 185.251Z" fill="white"/>
<path d="M427.699 291.59C423.91 299.279 419.502 306.647 414.52 313.624C411.336 312.262 407.913 314.693 404.932 316.973C401.819 319.359 398.077 321.684 394.884 319.51C391.62 317.283 390.568 311.052 391.603 306.111C392.638 301.18 395.22 297.255 397.723 293.526C400.377 289.566 403.216 285.457 406.904 283.919C410.602 282.381 415.351 284.555 416.431 289.805L419.049 289.717C417.58 287.702 418.35 283.53 420.322 282.796C422.595 281.939 424.568 285.059 425.912 287.816C426.514 289.063 427.124 290.318 427.699 291.59Z" fill="white"/>
<path d="M327.428 254.259C321.8 254.613 317.343 247.69 314.381 240.88C311.418 234.07 308.716 226.283 303.638 222.816C300.737 220.836 297.429 220.564 294.282 219.604C291.135 218.644 287.841 216.658 286.337 212.614L282.767 211.173C278.052 213.822 273.276 216.519 269.214 220.83C264.657 225.666 261.82 231.865 261.138 238.471C260.456 245.611 262.974 253.572 267.679 256.254C271.397 258.374 275.725 257.038 279.491 258.978C284.196 261.402 286.989 268.443 288.047 275.396C289.104 282.348 288.836 289.573 289.593 296.605C290.349 303.636 292.434 310.952 296.749 314.556C302.149 319.065 310.072 315.318 312.494 307.11C313.683 303.084 313.642 298.541 314.53 294.361C316.096 287.001 320.319 281.54 323.669 275.503C327.019 269.466 329.656 261.266 327.428 254.259Z" fill="white"/>
<path d="M271.82 181.936C272.345 182.418 272.834 182.938 273.285 183.49C273.752 184.294 273.99 185.21 273.974 186.14C273.959 187.069 273.689 187.976 273.195 188.764C273.873 188.726 274.536 188.547 275.141 188.24C275.746 187.932 276.281 187.503 276.712 186.978C277.739 185.809 278.642 184.538 279.408 183.183C279.982 182.248 280.592 180.984 280.203 179.873C279.937 179.115 279.308 178.791 278.868 178.221C278.169 177.318 277.996 175.882 277.634 174.642C276.854 171.963 274.983 169.993 272.952 169.712L273.234 169.766C272.386 170.056 271.794 171.402 271.981 172.613C272.152 173.716 272.862 174.631 272.791 175.756C272.69 177.374 271.072 178.133 270.972 179.75C270.956 180.562 271.261 181.347 271.82 181.936Z" fill="white"/>
<path d="M262.178 154.449C262.187 154.447 262.195 154.446 262.203 154.444C262.376 154.287 262.537 154.116 262.683 153.933L262.178 154.449Z" fill="#E6E6E6"/>
<path d="M263.866 162.041C265.11 161.242 265.805 159.031 265.394 157.18C264.985 155.341 263.538 154.105 262.203 154.444C261.816 154.836 261.336 155.124 260.807 155.279C260.278 155.435 259.718 155.454 259.18 155.334C258.355 155.121 257.449 154.575 256.733 155.196C256.324 155.66 256.037 156.219 255.9 156.822C255.635 157.634 255.37 158.447 255.105 159.259C254.98 159.55 254.947 159.873 255.011 160.183C255.062 160.307 255.144 160.416 255.249 160.5C255.354 160.583 255.479 160.638 255.612 160.66C257.201 161.128 258.79 161.596 260.38 162.064C261.538 162.405 262.788 162.734 263.866 162.041Z" fill="white"/>
<path d="M383.84 266.86C383.106 265.658 382.371 264.456 381.637 263.255C380.915 261.863 379.928 260.625 378.732 259.611C378.469 259.391 378.165 259.226 377.837 259.125C377.509 259.024 377.165 258.989 376.823 259.024C376.482 259.058 376.151 259.16 375.85 259.324C375.548 259.487 375.283 259.71 375.069 259.978L375.158 260.664C376.833 262.763 378.604 265.095 379.029 268.211C379.197 269.439 379.138 270.71 379.285 271.944C379.432 273.177 379.85 274.456 380.646 274.988C381.803 275.76 383.161 274.622 383.985 273.233C384.721 272.092 385.051 270.736 384.922 269.385C384.738 268.478 384.37 267.619 383.84 266.86Z" fill="white"/>
<path d="M416.535 220.962C416.747 219.57 416.96 218.178 417.172 216.786C417.517 215.257 417.56 213.675 417.299 212.129C417.239 211.792 417.113 211.469 416.927 211.181C416.741 210.893 416.5 210.645 416.217 210.452C415.934 210.258 415.615 210.123 415.279 210.055C414.942 209.986 414.596 209.985 414.26 210.053L413.886 210.635C413.814 213.319 413.666 216.243 411.984 218.9C411.32 219.947 410.456 220.882 409.774 221.92C409.091 222.958 408.586 224.206 408.853 225.125C409.24 226.46 411.013 226.463 412.538 225.93C413.837 225.531 414.963 224.706 415.735 223.59C416.179 222.778 416.451 221.883 416.535 220.962Z" fill="#E6E6E6"/>
<path d="M395.364 268.424C395.724 267.392 395.205 266.209 395.096 265.069C395.043 263.596 395.434 262.141 396.217 260.893C396.996 259.715 397.585 258.423 397.965 257.064C398.125 256.445 398.096 255.791 397.881 255.189C397.638 254.643 397.049 254.394 396.711 254.826L397.434 255.291C396.458 255.117 395.455 255.166 394.5 255.433C393.956 255.642 393.469 255.978 393.082 256.414C392.695 256.85 392.419 257.373 392.277 257.938C392.157 258.819 391.962 259.689 391.694 260.537C391.262 261.423 390.427 261.717 389.903 262.495C389.545 263.184 389.365 263.951 389.377 264.728C389.39 265.504 389.596 266.265 389.977 266.942C390.636 268.049 391.683 268.872 392.915 269.251C393.798 269.567 394.961 269.584 395.364 268.424Z" fill="white"/>
<path d="M415.887 274.611C416.206 275.441 416.634 276.225 417.158 276.943C418.141 277.932 419.476 277.324 420.668 277.084C421.75 276.913 422.857 277.038 423.874 277.446C424.89 277.853 425.777 278.527 426.441 279.398C425.979 277.094 424.97 274.935 423.499 273.102C422.029 271.269 420.14 269.815 417.99 268.863C415.18 267.718 412.221 267.607 409.299 267.505L408.794 267.634C410.08 271.375 414.119 271.291 415.887 274.611Z" fill="white"/>
<path d="M328.967 282.262L328.974 282.279C329.023 282.185 329.072 282.09 329.121 281.996L328.967 282.262Z" fill="#E6E6E6"/>
<path d="M325.854 288.284C325.175 289.516 324.591 290.797 324.107 292.118C323.467 294.257 323.042 296.454 322.841 298.678C322.683 299.942 322.634 301.557 323.427 302.173C323.655 302.324 323.929 302.387 324.2 302.35C324.471 302.313 324.719 302.179 324.898 301.973C325.338 301.508 325.699 300.973 325.964 300.39C327.522 297.708 328.732 294.839 329.564 291.853C330.323 288.706 330.316 285.003 328.974 282.279C327.934 284.281 326.894 286.282 325.854 288.284Z" fill="white"/>
<path d="M295.819 127.859C296.314 128.342 296.939 128.67 297.618 128.802C298.296 128.935 298.999 128.866 299.639 128.604C300.964 128.025 302.18 127.222 303.233 126.232C304.105 125.587 304.845 124.781 305.412 123.857C305.725 123.304 305.925 122.696 306.001 122.066C306.078 121.437 306.029 120.798 305.858 120.187C305.366 118.749 304.117 118.267 303.015 117.94C301.251 117.417 299.487 116.895 297.723 116.372L298.999 115.223C297.686 114.519 296.234 115.825 295.413 117.443C294.887 118.499 294.52 119.628 294.325 120.791C293.885 123.33 294.315 126.354 295.819 127.859Z" fill="#E6E6E6"/>
<path d="M326.962 117.412C327.459 117.96 328.146 118.298 328.884 118.358C329.622 118.418 330.354 118.195 330.934 117.735C331.432 117.361 331.846 116.886 332.149 116.341C332.452 115.796 332.636 115.194 332.69 114.574C332.815 113.187 332.129 111.646 331.149 111.526L331.373 110.228C329.486 109.888 327.163 109.819 326.152 112.11C325.81 112.987 325.706 113.939 325.848 114.869C325.99 115.8 326.374 116.676 326.962 117.412Z" fill="#E6E6E6"/>
<path d="M322.802 48.3824C311.736 47.1352 300.628 50.3314 291.921 57.268C283.213 64.2046 277.62 74.3134 276.372 85.3704C273.773 108.396 285.913 158.395 308.046 179.093C318.468 139.438 354.986 115.917 359.819 94.7759C364.982 72.1864 345.845 50.9797 322.802 48.3824Z" fill="#40916C"/>
<path d="M315.149 99.5698C322.711 99.5698 328.842 93.4437 328.842 85.8868C328.842 78.3299 322.711 72.2039 315.149 72.2039C307.586 72.2039 301.455 78.3299 301.455 85.8868C301.455 93.4437 307.586 99.5698 315.149 99.5698Z" fill="white"/>
<path d="M300.75 198.822C305.704 198.822 309.719 194.81 309.719 189.86C309.719 184.91 305.704 180.898 300.75 180.898C295.797 180.898 291.781 184.91 291.781 189.86C291.781 194.81 295.797 198.822 300.75 198.822Z" fill="#40916C"/>
<path opacity="0.2" d="M326.479 76.0837C328.02 77.0092 329.364 78.2289 330.433 79.6734C331.503 81.1178 332.277 82.7586 332.712 84.5021C333.147 86.2455 333.235 88.0575 332.969 89.8346C332.703 91.6117 332.089 93.3191 331.163 94.8593C330.237 96.3995 329.016 97.7423 327.571 98.811C326.125 99.8798 324.483 100.654 322.738 101.088C319.214 101.966 315.486 101.409 312.373 99.5401C315.547 100.246 318.868 99.7994 321.743 98.2814C324.618 96.7633 326.858 94.2726 328.063 91.2549C329.268 88.2372 329.358 84.8895 328.319 81.8111C327.279 78.7327 325.177 76.1245 322.389 74.4533C323.831 74.7727 325.212 75.3233 326.479 76.0837Z" fill="#231F20"/>
<path opacity="0.2" d="M359.872 94.8202C355.04 115.961 318.521 139.482 308.1 179.137C306.018 177.172 304.085 175.056 302.316 172.806C314.026 135.531 348.272 112.881 352.941 92.4555C357.12 74.1742 345.382 56.8002 328.54 49.461C348.927 54.582 364.604 74.119 359.872 94.8202Z" fill="#231F20"/>
<path d="M194.479 101.771C186.169 100.835 177.827 103.235 171.288 108.444C164.749 113.653 160.549 121.244 159.612 129.548C157.66 146.839 166.776 184.387 183.398 199.931C191.224 170.151 218.648 152.487 222.277 136.611C226.155 119.647 211.783 103.722 194.479 101.771Z" fill="#40916C"/>
<path d="M188.731 140.211C194.411 140.211 199.015 135.611 199.015 129.936C199.015 124.261 194.411 119.66 188.731 119.66C183.052 119.66 178.448 124.261 178.448 129.936C178.448 135.611 183.052 140.211 188.731 140.211Z" fill="white"/>
<path d="M177.919 214.746C181.639 214.746 184.654 211.733 184.654 208.016C184.654 204.299 181.639 201.286 177.919 201.286C174.199 201.286 171.183 204.299 171.183 208.016C171.183 211.733 174.199 214.746 177.919 214.746Z" fill="#40916C"/>
<path opacity="0.2" d="M197.24 122.574C198.398 123.269 199.407 124.185 200.21 125.27C201.013 126.354 201.595 127.587 201.921 128.896C202.248 130.205 202.313 131.566 202.114 132.9C201.914 134.235 201.453 135.517 200.758 136.674C200.062 137.83 199.146 138.839 198.06 139.641C196.975 140.444 195.741 141.025 194.431 141.352C193.121 141.678 191.759 141.743 190.423 141.544C189.088 141.344 187.805 140.884 186.647 140.189C189.031 140.719 191.525 140.384 193.684 139.244C195.843 138.104 197.525 136.233 198.43 133.967C199.334 131.701 199.403 129.187 198.622 126.875C197.841 124.563 196.262 122.605 194.169 121.35C195.252 121.589 196.289 122.003 197.24 122.574Z" fill="#231F20"/>
<path opacity="0.2" d="M222.317 136.644C218.689 152.52 191.264 170.184 183.438 199.964C181.875 198.488 180.423 196.899 179.094 195.209C187.889 167.217 213.606 150.208 217.112 134.869C220.25 121.14 211.436 108.093 198.788 102.581C214.098 106.427 225.871 121.099 222.317 136.644Z" fill="#231F20"/>
<path d="M516.431 474.004H505.14L499.769 430.487L516.433 430.488L516.431 474.004Z" fill="#A0616A"/>
<path d="M522.505 495.426H514.493L513.063 487.868L509.4 495.426H488.151C487.133 495.426 486.141 495.1 485.32 494.497C484.5 493.894 483.894 493.045 483.591 492.073C483.288 491.102 483.303 490.059 483.636 489.096C483.968 488.134 484.599 487.303 485.437 486.725L502.406 475.015V467.374L520.254 468.438L522.505 495.426Z" fill="#2F2E41"/>
<path d="M472.698 474.004H461.408L456.036 430.487L472.701 430.488L472.698 474.004Z" fill="#A0616A"/>
<path d="M478.773 495.426H470.761L469.331 487.868L465.668 495.426H444.419C443.4 495.426 442.409 495.1 441.588 494.497C440.768 493.894 440.162 493.045 439.858 492.073C439.555 491.102 439.571 490.059 439.903 489.096C440.235 488.134 440.867 487.303 441.705 486.725L458.674 475.015V467.374L476.522 468.438L478.773 495.426Z" fill="#2F2E41"/>
<path d="M429.804 359.11C431.964 362.349 455.47 451.375 455.47 451.375L476.313 453.75L473.839 431.35L470.057 391.711L464.202 365.252C464.202 365.252 484.88 318.229 486.187 314.483L487.116 311.795L493.576 370.38C494.344 372.472 494.678 374.697 494.559 376.922C494.365 380.581 498.038 435.636 498.038 435.636L499.804 455.38L517.661 457.859L524.906 423.697C530.956 412.599 527.488 373.165 525.014 369.495C522.541 365.824 523.523 340.262 523.523 340.262C526.683 339.151 545.521 274.961 536.099 275.34C536.704 271.918 537.179 268.863 537.179 268.863L520.823 255.683L479.888 245.05L469.561 240.095C469.561 240.095 451.116 274.175 451.3 275.869C451.554 278.016 451.062 280.185 449.906 282.012L431.284 344.288C431.284 344.288 427.621 355.839 429.804 359.11Z" fill="#2F2E41"/>
<path d="M532.644 136.261L526.132 122.445L503.968 123.297L496.738 137.669C496.738 137.669 476.077 162.328 475.409 170.345C474.568 180.43 481.558 229.853 474.568 226.649C474.568 226.649 458.088 245.977 467.839 245.977C477.591 245.977 521.7 273.645 524.594 276.756C527.488 279.868 540.408 281.885 539.325 275.389C538.242 268.894 532.644 233.764 532.644 233.764L547.798 178.525C552.159 166.599 553.516 153.221 543.657 145.21L532.644 136.261Z" fill="#CCCCCC"/>
<path d="M450.546 95.5983C447.581 94.4224 444.414 93.8415 441.224 93.8887C438.035 93.936 434.886 94.6104 431.958 95.8736C429.029 97.1368 426.379 98.964 424.157 101.251C421.935 103.538 420.186 106.239 419.009 109.202C414.06 121.66 413.24 151.411 422.45 166.322C434.292 145.767 458.25 138.178 464.159 127.11C470.474 115.284 463.013 100.544 450.546 95.5983Z" fill="#40916C"/>
<path d="M440.576 123.287C444.95 123.287 448.497 119.743 448.497 115.372C448.497 111.001 444.95 107.457 440.576 107.457C436.201 107.457 432.654 111.001 432.654 115.372C432.654 119.743 436.201 123.287 440.576 123.287Z" fill="white"/>
<path d="M416.742 176.409C419.607 176.409 421.93 174.088 421.93 171.225C421.93 168.362 419.607 166.041 416.742 166.041C413.876 166.041 411.553 168.362 411.553 171.225C411.553 174.088 413.876 176.409 416.742 176.409Z" fill="#40916C"/>
<path opacity="0.2" d="M448.389 111.619C449.841 113.135 450.63 115.164 450.584 117.262C450.539 119.359 449.662 121.352 448.146 122.804C446.63 124.256 444.6 125.046 442.501 125.003C440.402 124.96 438.406 124.085 436.952 122.572C438.616 123.447 440.538 123.702 442.373 123.291C444.209 122.88 445.838 121.829 446.969 120.327C448.1 118.826 448.659 116.971 448.546 115.095C448.434 113.219 447.656 111.444 446.354 110.088C447.111 110.485 447.798 111.002 448.389 111.619Z" fill="#231F20"/>
<path opacity="0.2" d="M464.183 127.143C458.274 138.21 434.315 145.8 422.473 166.355C421.61 164.942 420.852 163.467 420.207 161.943C432.407 142.913 454.964 135.465 460.673 124.772C465.783 115.201 461.871 103.722 453.584 97.0707C464.187 103.022 469.969 116.305 464.183 127.143Z" fill="#231F20"/>
<path d="M414.403 169.44C415.61 169.192 416.856 169.21 418.054 169.495C419.252 169.78 420.373 170.324 421.338 171.088C422.303 171.853 423.088 172.819 423.639 173.92C424.189 175.021 424.492 176.229 424.525 177.459L442.496 184.351L440.967 196.285L415.726 186.195C413.654 186.114 411.684 185.275 410.19 183.839C408.695 182.403 407.78 180.47 407.617 178.404C407.454 176.339 408.055 174.286 409.305 172.634C410.556 170.981 412.37 169.845 414.404 169.44L414.403 169.44Z" fill="#A0616A"/>
<path d="M539.971 144.847C538.079 143.693 535.977 142.923 533.787 142.582C531.596 142.242 529.36 142.336 527.206 142.861C525.052 143.385 523.023 144.33 521.236 145.64C519.448 146.949 517.936 148.599 516.788 150.494L490.993 193.057L432.673 179.243L427.359 193.819L502.045 229.169L539.871 168.968C545.534 161.016 548.308 149.933 539.971 144.847Z" fill="#CCCCCC"/>
<path d="M540.934 92.6849C540.935 96.7872 539.929 100.827 538.003 104.45C536.078 108.073 533.291 111.168 529.889 113.464C526.486 115.76 522.572 117.186 518.489 117.617C514.406 118.048 510.28 117.471 506.472 115.937C502.665 114.403 499.293 111.958 496.651 108.818C494.01 105.677 492.181 101.937 491.324 97.9245C490.467 93.9126 490.609 89.7517 491.737 85.8074C492.865 81.863 494.945 78.2556 497.794 75.302L497.915 75.1818C498.115 74.9712 498.316 74.7607 498.527 74.5601C498.528 74.5602 498.529 74.5599 498.531 74.5594C498.532 74.5589 498.533 74.5582 498.534 74.5573C498.535 74.5563 498.535 74.5552 498.536 74.554C498.536 74.5528 498.537 74.5514 498.537 74.5501C498.797 74.3095 499.058 74.069 499.329 73.8384C502.953 70.6635 507.417 68.5995 512.184 67.8937C516.952 67.1878 521.823 67.87 526.212 69.8586C530.602 71.8471 534.326 75.0577 536.936 79.106C539.547 83.1543 540.935 87.8687 540.934 92.6848V92.6849Z" fill="#2F2E41"/>
<path d="M509.673 119.499C521.289 119.499 530.705 110.09 530.705 98.4834C530.705 86.877 521.289 77.4681 509.673 77.4681C498.058 77.4681 488.642 86.877 488.642 98.4834C488.642 110.09 498.058 119.499 509.673 119.499Z" fill="#9E616A"/>
<path d="M532.007 104.477L528.523 103.862C526.575 103.508 524.783 102.569 523.384 101.169C521.986 99.7702 521.049 97.9777 520.697 96.0316L517.297 101.726L517.148 101.775C509.047 104.463 500.618 103.659 491.385 99.3209C488.746 98.0696 486.185 96.6588 483.717 95.0961L483.534 94.9824L483.52 94.7687C483.049 87.9322 484.584 82.2208 487.844 78.6867C489.095 77.357 490.614 76.3066 492.3 75.6043C493.986 74.9019 495.802 74.5636 497.628 74.6113C497.758 74.5774 497.877 74.5115 497.975 74.4197C498.022 74.3852 498.069 74.3512 498.116 74.3188V74.2835L498.357 74.1698C498.876 73.9261 499.405 73.6926 499.934 73.4792C504.096 71.8695 508.627 71.4657 513.008 72.3142C517.389 73.1627 521.442 75.2291 524.7 78.276C531.179 84.4559 534.15 94.8269 532.094 104.084L532.007 104.477Z" fill="#2F2E41"/>
<path d="M576.367 122.382C569.21 118.691 578.415 105.294 576.566 97.4609C574.716 89.6282 561.396 87.1089 560.548 79.1058C559.699 71.1027 557.703 62.8483 552.418 56.7755C549.041 52.895 544.064 50.0303 538.941 50.5164C537.207 50.6808 535.53 51.2167 534.022 52.0874C532.514 52.9581 531.212 54.1433 530.204 55.5622C529.197 56.9811 528.507 58.6004 528.181 60.3098C527.856 62.0192 527.904 63.7785 528.32 65.468C526.862 63.4026 523.087 63.8502 522.152 66.1995C521.321 68.288 523.157 70.8178 525.316 71.0026C528.143 74.49 531.379 78.1912 535.806 78.8947C536.512 79.0566 537.245 79.0562 537.95 78.8935C538.655 78.7308 539.315 78.4102 539.878 77.9557C540.919 76.9562 541 74.9579 539.765 74.2109C545.329 76.4195 548.591 82.4309 549.417 88.3562C550.242 94.2815 549.1 100.277 548.347 106.212C547.595 112.147 547.27 118.39 549.599 123.902C552.351 130.413 558.686 135.081 565.6 136.577C572.513 138.074 579.876 136.611 586.134 133.315C592.392 130.019 597.611 124.988 601.874 119.347C594.53 124.558 584.371 126.509 576.367 122.382Z" fill="#2F2E41"/>
<path d="M531.112 103.892C531.112 103.892 524.882 80.6552 498.175 75.2919C498.145 75.282 498.045 75.2419 497.915 75.1818C497.834 75.1317 497.734 75.0815 497.634 75.0314C497.935 74.861 498.226 74.7107 498.527 74.5602C498.528 74.5602 498.529 74.5599 498.53 74.5595C498.532 74.559 498.533 74.5582 498.534 74.5573C498.535 74.5563 498.535 74.5552 498.536 74.554C498.536 74.5528 498.537 74.5515 498.537 74.5501C498.797 74.3096 499.058 74.069 499.329 73.8384L500.092 73.8685C500.092 73.8685 526.888 69.6281 531.112 103.892Z" fill="#FD6584"/>
<path opacity="0.2" d="M517.163 178.455L502.08 195.916L477.156 188.562L504.327 201.073L517.163 178.455Z" fill="black"/>
<path d="M607.699 496.742L375.791 497C375.526 496.999 375.272 496.893 375.085 496.706C374.898 496.518 374.793 496.264 374.793 495.999C374.793 495.734 374.898 495.48 375.085 495.293C375.272 495.105 375.526 495 375.791 494.999L607.699 494.741C607.964 494.741 608.219 494.846 608.407 495.034C608.595 495.221 608.7 495.476 608.7 495.741C608.7 496.006 608.595 496.261 608.407 496.449C608.219 496.636 607.964 496.742 607.699 496.742Z" fill="#CACACA"/>
<path d="M617.878 341.243C607.019 341.243 595.117 340.833 582.172 340.013C515.216 335.765 428.488 320.994 337.964 298.422C247.44 275.851 163.935 248.174 102.831 220.493C73.0656 207.008 50.2209 194.243 34.9321 182.553C18.7452 170.177 11.6648 159.39 13.8868 150.491C18.2163 133.156 56.5519 129.363 87.9492 129.234L87.9598 131.755C44.8431 131.932 19.4063 138.803 16.3351 151.102C12.4229 166.766 44.3294 191.221 103.873 218.197C164.842 245.817 248.194 273.441 338.575 295.977C428.956 318.512 515.524 333.257 582.332 337.497C647.576 341.638 687.242 335.028 691.154 319.364C694.402 306.358 672.99 287.199 630.863 265.415L632.022 263.176C662.632 279.005 698.164 301.707 693.602 319.974C691.38 328.873 680.057 335.071 659.949 338.397C648.487 340.293 634.408 341.243 617.878 341.243Z" fill="#40916C"/>
</g>
<defs>
<clipPath id="clip0_28_4">
<rect width="694" height="497" fill="white"/>
</clipPath>
</defs>
</svg>
