<svg width="577" height="588" viewBox="0 0 577 588" fill="none" xmlns="http://www.w3.org/2000/svg">
<path d="M381.194 237.091C380.657 237.091 380.142 237.305 379.762 237.685C379.382 238.064 379.169 238.579 379.168 239.116V378.149C379.169 378.686 379.382 379.2 379.762 379.58C380.142 379.96 380.657 380.173 381.194 380.174H574.974C575.511 380.173 576.026 379.96 576.406 379.58C576.786 379.2 576.999 378.686 577 378.149V239.116C576.999 238.579 576.786 238.064 576.406 237.685C576.026 237.305 575.511 237.091 574.974 237.091H381.194Z" fill="#E6E6E6"/>
<path d="M564.272 249.525V348.333C564.272 348.992 564.01 349.625 563.544 350.091C563.078 350.557 562.445 350.819 561.786 350.819H393.983C393.865 350.82 393.748 350.81 393.632 350.788C393.04 350.705 392.498 350.41 392.106 349.959C391.714 349.508 391.497 348.931 391.497 348.333V249.525C391.497 248.866 391.759 248.234 392.225 247.768C392.691 247.302 393.324 247.04 393.983 247.04H561.786C562.445 247.04 563.078 247.302 563.544 247.768C564.01 248.234 564.272 248.866 564.272 249.525Z" fill="white"/>
<path d="M529.492 292.257C534.471 292.257 538.507 288.223 538.507 283.246C538.507 278.27 534.471 274.235 529.492 274.235C524.514 274.235 520.478 278.27 520.478 283.246C520.478 288.223 524.514 292.257 529.492 292.257Z" fill="#FF6584"/>
<path d="M384.959 245.058C386.6 245.058 387.931 243.727 387.931 242.087C387.931 240.446 386.6 239.116 384.959 239.116C383.317 239.116 381.987 240.446 381.987 242.087C381.987 243.727 383.317 245.058 384.959 245.058Z" fill="#3F3D56"/>
<path d="M570.813 245.058C572.454 245.058 573.785 243.727 573.785 242.087C573.785 240.446 572.454 239.116 570.813 239.116C569.171 239.116 567.841 240.446 567.841 242.087C567.841 243.727 569.171 245.058 570.813 245.058Z" fill="#3F3D56"/>
<path d="M384.959 378.149C386.6 378.149 387.931 376.819 387.931 375.178C387.931 373.537 386.6 372.207 384.959 372.207C383.317 372.207 381.987 373.537 381.987 375.178C381.987 376.819 383.317 378.149 384.959 378.149Z" fill="#3F3D56"/>
<path d="M570.813 378.149C572.454 378.149 573.785 376.819 573.785 375.178C573.785 373.537 572.454 372.207 570.813 372.207C569.171 372.207 567.841 373.537 567.841 375.178C567.841 376.819 569.171 378.149 570.813 378.149Z" fill="#3F3D56"/>
<path d="M446.783 318.62C452.756 318.62 457.598 313.779 457.598 307.809C457.598 301.838 452.756 296.998 446.783 296.998C440.809 296.998 435.967 301.838 435.967 307.809C435.967 313.779 440.809 318.62 446.783 318.62Z" fill="#40916C"/>
<path d="M447.825 340.372H445.61L446.62 306.18L447.825 340.372Z" fill="#3F3D56"/>
<path d="M446.815 312.66L449.193 309.371L446.782 313.475L446.522 313.019L446.815 312.66Z" fill="#3F3D56"/>
<path d="M446.554 315.982L444.176 312.693L446.587 316.796L446.848 316.34L446.554 315.982Z" fill="#3F3D56"/>
<path d="M545.997 318.62C551.97 318.62 556.813 313.779 556.813 307.809C556.813 301.838 551.97 296.998 545.997 296.998C540.024 296.998 535.181 301.838 535.181 307.809C535.181 313.779 540.024 318.62 545.997 318.62Z" fill="#40916C"/>
<path d="M547.039 340.372H544.824L545.834 306.18L547.039 340.372Z" fill="#3F3D56"/>
<path d="M546.029 312.66L548.408 309.371L545.997 313.475L545.737 313.019L546.029 312.66Z" fill="#3F3D56"/>
<path d="M545.769 315.982L543.391 312.693L545.801 316.796L546.062 316.34L545.769 315.982Z" fill="#3F3D56"/>
<path d="M478.114 314.345C486.936 314.345 494.088 307.196 494.088 298.378C494.088 289.56 486.936 282.411 478.114 282.411C469.292 282.411 462.14 289.56 462.14 298.378C462.14 307.196 469.292 314.345 478.114 314.345Z" fill="#40916C"/>
<path d="M479.653 346.471H476.382L477.873 295.973L479.653 346.471Z" fill="#3F3D56"/>
<path d="M478.162 305.543L481.675 300.686L478.114 306.746L477.729 306.073L478.162 305.543Z" fill="#3F3D56"/>
<path d="M477.777 310.449L474.265 305.591L477.825 311.652L478.21 310.979L477.777 310.449Z" fill="#3F3D56"/>
<path d="M517.069 308.245C525.891 308.245 533.043 301.097 533.043 292.278C533.043 283.46 525.891 276.312 517.069 276.312C508.247 276.312 501.095 283.46 501.095 292.278C501.095 301.097 508.247 308.245 517.069 308.245Z" fill="#40916C"/>
<path d="M518.609 340.372H515.338L516.829 289.874L518.609 340.372Z" fill="#3F3D56"/>
<path d="M517.118 299.444L520.629 294.587L517.069 300.647L516.685 299.973L517.118 299.444Z" fill="#3F3D56"/>
<path d="M516.733 304.35L513.22 299.492L516.781 305.553L517.166 304.879L516.733 304.35Z" fill="#3F3D56"/>
<path d="M416.029 308.245C424.851 308.245 432.003 301.097 432.003 292.278C432.003 283.46 424.851 276.312 416.029 276.312C407.207 276.312 400.055 283.46 400.055 292.278C400.055 301.097 407.207 308.245 416.029 308.245Z" fill="#40916C"/>
<path d="M417.569 340.372H414.297L415.789 289.874L417.569 340.372Z" fill="#3F3D56"/>
<path d="M416.077 299.444L419.589 294.587L416.029 300.647L415.644 299.973L416.077 299.444Z" fill="#3F3D56"/>
<path d="M415.692 304.35L412.18 299.492L415.741 305.553L416.125 304.879L415.692 304.35Z" fill="#3F3D56"/>
<path d="M479.006 350.819H393.983C393.865 350.82 393.748 350.81 393.632 350.788C393.04 350.705 392.498 350.41 392.106 349.959C391.714 349.508 391.497 348.931 391.497 348.333V327.116C399.497 325.783 407.595 325.125 415.706 325.149C445.888 325.149 471.134 333.794 477.465 345.368C478.42 347.03 478.95 348.903 479.006 350.819Z" fill="#3F3D56"/>
<path d="M564.272 343.523V348.333C564.272 348.993 564.01 349.625 563.544 350.091C563.078 350.557 562.445 350.819 561.786 350.819H467.717C470.743 348.628 474.014 346.799 477.465 345.368C488.99 340.427 505.244 337.347 523.252 337.347C538.904 337.347 553.22 339.665 564.272 343.523Z" fill="#3F3D56"/>
<path d="M489.011 0C488.68 0.000457537 488.354 0.0822765 488.062 0.238252L316.979 91.2017C316.506 91.4547 316.152 91.8851 315.995 92.3985C315.838 92.9119 315.891 93.4666 316.143 93.9408L381.464 216.688C381.717 217.162 382.147 217.516 382.661 217.673C383.175 217.83 383.73 217.777 384.205 217.525L555.286 126.562C555.76 126.309 556.115 125.879 556.272 125.365C556.429 124.852 556.375 124.297 556.124 123.823L490.802 1.07548C490.678 0.840121 490.508 0.631769 490.303 0.462491C490.097 0.293214 489.86 0.16638 489.605 0.0893387C489.413 0.0303231 489.212 0.000215448 489.011 0Z" fill="#E6E6E6"/>
<path d="M484.458 16.2392L530.879 103.47C531.033 103.759 531.128 104.074 531.159 104.4C531.191 104.725 531.158 105.053 531.062 105.365C530.967 105.678 530.811 105.968 530.603 106.221C530.395 106.473 530.139 106.681 529.851 106.835L381.705 185.603C381.6 185.66 381.491 185.707 381.378 185.746C380.815 185.948 380.198 185.941 379.64 185.726C379.082 185.511 378.62 185.102 378.34 184.575L331.919 97.3436C331.765 97.0553 331.67 96.7394 331.638 96.4143C331.607 96.0891 331.64 95.7609 331.735 95.4484C331.831 95.136 331.987 94.8454 332.195 94.5934C332.403 94.3413 332.658 94.1326 332.947 93.9793L481.092 15.2112C481.381 15.0577 481.697 14.9625 482.022 14.9311C482.347 14.8997 482.676 14.9326 482.988 15.0281C483.301 15.1235 483.591 15.2796 483.844 15.4874C484.096 15.6953 484.305 15.9507 484.458 16.2392Z" fill="white"/>
<path d="M385.441 129.714C397.499 129.714 407.274 119.944 407.274 107.891C407.274 95.8382 397.499 86.0675 385.441 86.0675C373.383 86.0675 363.608 95.8382 363.608 107.891C363.608 119.944 373.383 129.714 385.441 129.714Z" fill="#FF6584"/>
<path d="M477.484 135.126L382.924 185.404C382.806 185.468 382.683 185.522 382.556 185.564L386.072 84.3524C386.088 83.725 386.271 83.1132 386.601 82.5795C386.931 82.0458 387.397 81.6093 387.952 81.3146C388.506 81.0198 389.129 80.8775 389.756 80.902C390.383 80.9265 390.993 81.1171 391.523 81.4542L449.19 117.459L451.951 119.181L477.484 135.126Z" fill="#3F3D56"/>
<path opacity="0.2" d="M477.484 135.127L445.199 152.292L448.802 120.855L449.061 118.591L449.19 117.459L451.951 119.181L477.484 135.127Z" fill="black"/>
<path d="M530.135 107.132L448.348 150.618L451.951 119.181L452.209 116.917L456.903 75.9484C457.212 73.2632 460.404 71.4089 462.909 72.2796C463.078 72.3399 463.244 72.4109 463.404 72.4922L530.135 107.132Z" fill="#3F3D56"/>
<path d="M322.651 96.8162C324.292 96.8162 325.623 95.4861 325.623 93.8454C325.623 92.2047 324.292 90.8746 322.651 90.8746C321.01 90.8746 319.679 92.2047 319.679 93.8454C319.679 95.4861 321.01 96.8162 322.651 96.8162Z" fill="#3F3D56"/>
<path d="M486.736 9.57316C488.377 9.57316 489.708 8.24309 489.708 6.60238C489.708 4.96166 488.377 3.63159 486.736 3.63159C485.094 3.63159 483.764 4.96166 483.764 6.60238C483.764 8.24309 485.094 9.57316 486.736 9.57316Z" fill="#3F3D56"/>
<path d="M385.181 214.318C386.822 214.318 388.153 212.988 388.153 211.347C388.153 209.707 386.822 208.376 385.181 208.376C383.539 208.376 382.209 209.707 382.209 211.347C382.209 212.988 383.539 214.318 385.181 214.318Z" fill="#3F3D56"/>
<path d="M549.266 127.075C550.907 127.075 552.238 125.745 552.238 124.104C552.238 122.463 550.907 121.133 549.266 121.133C547.624 121.133 546.293 122.463 546.293 124.104C546.293 125.745 547.624 127.075 549.266 127.075Z" fill="#3F3D56"/>
<path d="M530.436 587.932C530.955 588.069 531.508 587.995 531.972 587.725C532.437 587.456 532.776 587.013 532.915 586.495L568.672 452.135C568.81 451.616 568.737 451.063 568.467 450.598C568.197 450.134 567.754 449.795 567.235 449.657L379.967 399.862C379.448 399.724 378.895 399.798 378.43 400.068C377.965 400.337 377.627 400.78 377.488 401.299L341.731 535.659C341.663 535.916 341.646 536.184 341.681 536.448C341.716 536.711 341.803 536.966 341.936 537.196C342.07 537.426 342.248 537.627 342.459 537.789C342.67 537.95 342.912 538.069 343.169 538.137L530.436 587.932Z" fill="#E6E6E6"/>
<path d="M553.695 458.924L528.283 554.411C528.113 555.048 527.697 555.592 527.127 555.922C526.556 556.253 525.878 556.343 525.241 556.174L363.078 513.055C362.963 513.026 362.852 512.986 362.746 512.935C362.196 512.702 361.748 512.279 361.484 511.742C361.221 511.205 361.161 510.592 361.314 510.014L386.726 414.527C386.896 413.89 387.311 413.347 387.882 413.016C388.452 412.685 389.131 412.595 389.768 412.764L551.931 455.883C552.568 456.053 553.112 456.468 553.443 457.039C553.774 457.609 553.864 458.287 553.695 458.924Z" fill="white"/>
<path d="M531.893 540.847L528.283 554.411C528.113 555.048 527.697 555.592 527.127 555.922C526.556 556.253 525.878 556.343 525.241 556.174L363.078 513.055C362.963 513.026 362.852 512.986 362.746 512.935C362.196 512.702 361.748 512.279 361.484 511.742C361.221 511.205 361.161 510.592 361.314 510.014L364.924 496.45L531.893 540.847Z" fill="#3F3D56"/>
<path d="M460.242 530.473L434.443 523.613L433.659 526.56L459.457 533.42L460.242 530.473Z" fill="#CCCCCC"/>
<path d="M400.905 514.695L375.106 507.835L374.322 510.783L400.12 517.642L400.905 514.695Z" fill="#CCCCCC"/>
<path d="M519.579 546.251L493.78 539.391L492.995 542.338L518.794 549.198L519.579 546.251Z" fill="#CCCCCC"/>
<path d="M382.321 408.629C383.962 408.629 385.293 407.299 385.293 405.658C385.293 404.018 383.962 402.688 382.321 402.688C380.68 402.688 379.349 404.018 379.349 405.658C379.349 407.299 380.68 408.629 382.321 408.629Z" fill="#3F3D56"/>
<path d="M561.929 456.387C563.57 456.387 564.901 455.057 564.901 453.416C564.901 451.775 563.57 450.445 561.929 450.445C560.287 450.445 558.957 451.775 558.957 453.416C558.957 455.057 560.287 456.387 561.929 456.387Z" fill="#3F3D56"/>
<path d="M348.092 537.247C349.733 537.247 351.064 535.917 351.064 534.276C351.064 532.635 349.733 531.305 348.092 531.305C346.45 531.305 345.119 532.635 345.119 534.276C345.119 535.917 346.45 537.247 348.092 537.247Z" fill="#3F3D56"/>
<path d="M527.7 585.005C529.341 585.005 530.672 583.674 530.672 582.034C530.672 580.393 529.341 579.063 527.7 579.063C526.058 579.063 524.727 580.393 524.727 582.034C524.727 583.674 526.058 585.005 527.7 585.005Z" fill="#3F3D56"/>
<path d="M492.015 534.659L506.351 538.479L506.958 536.205L492.621 532.385L492.015 534.659Z" fill="#3F3D56"/>
<path d="M388.812 505.329L391.588 506.799L504.006 536.755L505.643 534.67C508.481 531.1 510.271 526.811 510.811 522.283C511.193 518.903 510.839 515.349 508.457 513.213L512.307 478.669L450.133 462.018L420.904 475.021C420.904 475.021 409.605 471.798 401.395 477.833C398.411 480.095 396.177 483.203 394.985 486.752L393.679 490.68L388.812 505.329Z" fill="#40916C"/>
<path d="M413.655 525.699C421.589 525.699 428.021 519.27 428.021 511.339C428.021 503.408 421.589 496.979 413.655 496.979C405.72 496.979 399.288 503.408 399.288 511.339C399.288 519.27 405.72 525.699 413.655 525.699Z" fill="#3F3D56"/>
<path d="M413.655 518.897C417.831 518.897 421.216 515.513 421.216 511.339C421.216 507.165 417.831 503.781 413.655 503.781C409.479 503.781 406.093 507.165 406.093 511.339C406.093 515.513 409.479 518.897 413.655 518.897Z" fill="#CCCCCC"/>
<path d="M482.152 543.952C490.086 543.952 496.518 537.523 496.518 529.592C496.518 521.661 490.086 515.232 482.152 515.232C474.217 515.232 467.785 521.661 467.785 529.592C467.785 537.523 474.217 543.952 482.152 543.952Z" fill="#3F3D56"/>
<path d="M482.152 537.15C486.328 537.15 489.713 533.766 489.713 529.592C489.713 525.418 486.328 522.034 482.152 522.034C477.976 522.034 474.591 525.418 474.591 529.592C474.591 533.766 477.976 537.15 482.152 537.15Z" fill="#CCCCCC"/>
<path d="M431.069 475.295L464.65 484.24L468.749 485.33L475.67 487.176L475.805 486.67L477.429 480.588L479.252 473.758L474.647 472.533L470.548 471.438L463.287 469.503L459.188 468.412L450.805 466.178L431.069 475.295Z" fill="white"/>
<path d="M481.133 488.634L498.881 493.363L499.812 489.882L501.43 483.799L502.462 479.945L499.863 479.254L495.764 478.159L484.71 475.215L481.133 488.634Z" fill="white"/>
<path d="M469.575 500.905L471.85 501.512L473.003 497.19L470.727 496.584L469.575 500.905Z" fill="#3F3D56"/>
<path d="M438.533 483.86L439.139 481.586L434.816 480.434L434.209 482.708L438.533 483.86Z" fill="#3F3D56"/>
<path d="M437.279 482.162L437.029 482.095C435.768 481.759 434.691 480.936 434.037 479.807C433.383 478.677 433.205 477.335 433.541 476.074C433.877 474.813 434.701 473.737 435.83 473.083C436.96 472.43 438.303 472.251 439.565 472.587L439.815 472.654L437.279 482.162Z" fill="#3F3D56"/>
<path d="M393.679 490.68C395.351 491.325 397.196 491.359 398.89 490.777C400.585 490.196 402.019 489.035 402.941 487.499C403.864 485.964 404.214 484.153 403.931 482.385C403.648 480.616 402.75 479.004 401.395 477.833C398.411 480.095 396.177 483.203 394.985 486.752L393.679 490.68Z" fill="#3F3D56"/>
<path d="M470.548 471.438L475.805 486.671L477.429 480.588L474.647 472.533L470.548 471.438Z" fill="#F2F2F2"/>
<path d="M495.764 478.159L499.812 489.883L501.43 483.799L499.863 479.254L495.764 478.159Z" fill="#F2F2F2"/>
<path d="M459.188 468.413L464.65 484.24L468.749 485.33L463.287 469.503L459.188 468.413Z" fill="#F2F2F2"/>
<path d="M30.5223 236.585C35.5773 236.585 39.6752 232.489 39.6752 227.436C39.6752 222.383 35.5773 218.287 30.5223 218.287C25.4673 218.287 21.3694 222.383 21.3694 227.436C21.3694 232.489 25.4673 236.585 30.5223 236.585Z" fill="#40916C"/>
<path opacity="0.2" d="M34.3857 219.151C36.0086 220.62 37.0501 222.622 37.3207 224.794C37.5913 226.966 37.073 229.163 35.8602 230.985C34.6473 232.807 32.8204 234.133 30.7118 234.722C28.6033 235.312 26.3531 235.125 24.3706 234.196C25.3447 235.084 26.4992 235.75 27.755 236.15C29.0108 236.549 30.3382 236.673 31.6462 236.512C32.9543 236.352 34.2122 235.91 35.3337 235.218C36.4552 234.526 37.4138 233.6 38.1439 232.503C38.8739 231.407 39.3582 230.165 39.5635 228.864C39.7689 227.563 39.6904 226.232 39.3335 224.964C38.9765 223.696 38.3496 222.52 37.4956 221.517C36.6417 220.513 35.5808 219.706 34.3857 219.151Z" fill="black"/>
<path d="M265.828 246.496C278.254 246.496 288.328 242.4 288.328 237.347C288.328 232.294 278.254 228.198 265.828 228.198C253.401 228.198 243.327 232.294 243.327 237.347C243.327 242.4 253.401 246.496 265.828 246.496Z" fill="#3F3D56"/>
<path opacity="0.2" d="M265.828 228.198C265.055 228.198 264.292 228.214 263.539 228.245C274.891 228.711 283.752 232.609 283.752 237.347C283.752 242.086 274.891 245.983 263.539 246.449C264.292 246.48 265.055 246.496 265.828 246.496C278.254 246.496 288.328 242.4 288.328 237.347C288.328 232.294 278.254 228.198 265.828 228.198Z" fill="black"/>
<path d="M295.193 237.347H182.308V225.149C182.308 224.542 182.066 223.96 181.637 223.531C181.208 223.103 180.626 222.862 180.019 222.862H117.475C116.868 222.862 116.286 223.103 115.857 223.531C115.428 223.96 115.186 224.542 115.186 225.149V237.347H49.5908V229.723C49.5908 229.117 49.3498 228.535 48.9206 228.106C48.4915 227.677 47.9095 227.436 47.3026 227.436H13.742C13.1352 227.436 12.5532 227.677 12.124 228.106C11.6949 228.535 11.4538 229.117 11.4538 229.723V237.347H2.30095C2.00034 237.347 1.70261 237.406 1.42481 237.521C1.14701 237.635 0.894606 237.804 0.682046 238.016C0.469485 238.229 0.300946 238.481 0.186095 238.759C0.0712432 239.036 0.0123263 239.334 0.0127279 239.635V389.829C0.0123263 390.129 0.0712432 390.427 0.186095 390.704C0.300946 390.982 0.469485 391.234 0.682046 391.447C0.894606 391.659 1.14701 391.828 1.42481 391.942C1.70261 392.057 2.00034 392.116 2.30095 392.116H295.193C295.494 392.116 295.791 392.057 296.069 391.942C296.347 391.828 296.599 391.659 296.812 391.447C297.025 391.234 297.193 390.982 297.308 390.704C297.423 390.427 297.482 390.129 297.481 389.829V239.635C297.482 239.334 297.423 239.036 297.308 238.759C297.193 238.481 297.025 238.229 296.812 238.016C296.599 237.804 296.347 237.635 296.069 237.521C295.791 237.406 295.494 237.347 295.193 237.347Z" fill="#3F3D56"/>
<path opacity="0.2" d="M295.18 380.915H2.28822C1.98762 380.915 1.68989 380.856 1.41209 380.741C1.13429 380.626 0.881869 380.458 0.669308 380.246C0.456747 380.033 0.28822 379.781 0.173369 379.503C0.0585174 379.225 -0.000399572 378.928 2.03944e-06 378.627V389.301C-0.000399572 389.602 0.0585174 389.899 0.173369 390.177C0.28822 390.454 0.456747 390.707 0.669308 390.919C0.881869 391.132 1.13429 391.3 1.41209 391.415C1.68989 391.53 1.98762 391.589 2.28822 391.588H295.18C295.481 391.589 295.779 391.53 296.056 391.415C296.334 391.3 296.587 391.132 296.799 390.919C297.012 390.707 297.18 390.454 297.295 390.177C297.41 389.899 297.469 389.602 297.469 389.301V378.627C297.469 378.928 297.41 379.225 297.295 379.503C297.18 379.781 297.012 380.033 296.799 380.246C296.587 380.458 296.334 380.626 296.056 380.741C295.779 380.856 295.481 380.915 295.18 380.915Z" fill="black"/>
<path opacity="0.2" d="M297.481 307.489H0.0127106V336.46H297.481V307.489Z" fill="black"/>
<path opacity="0.2" d="M297.481 293.003H0.0127106V321.974H297.481V293.003Z" fill="black"/>
<path d="M297.481 299.865H0.0127106V328.836H297.481V299.865Z" fill="#40916C"/>
<path d="M148.747 372.293C180.762 372.293 206.715 346.351 206.715 314.35C206.715 282.349 180.762 256.407 148.747 256.407C116.732 256.407 90.7787 282.349 90.7787 314.35C90.7787 346.351 116.732 372.293 148.747 372.293Z" fill="#40916C"/>
<path opacity="0.2" d="M193.398 277.401C200.772 289.959 203.145 304.832 200.045 319.06C196.945 333.288 188.598 345.827 176.667 354.183C164.736 362.538 150.095 366.096 135.658 364.149C121.221 362.202 108.046 354.893 98.7567 343.676C102.808 350.576 108.245 356.563 114.726 361.26C121.207 365.956 128.59 369.26 136.411 370.963C144.232 372.666 152.322 372.732 160.17 371.156C168.017 369.579 175.453 366.395 182.009 361.805C188.565 357.214 194.099 351.315 198.261 344.481C202.424 337.647 205.125 330.025 206.195 322.096C207.265 314.166 206.68 306.101 204.478 298.409C202.275 290.717 198.503 283.564 193.398 277.401Z" fill="black"/>
<path d="M148.747 357.471C172.572 357.471 191.886 338.165 191.886 314.35C191.886 290.536 172.572 271.23 148.747 271.23C124.922 271.23 105.608 290.536 105.608 314.35C105.608 338.165 124.922 357.471 148.747 357.471Z" fill="#3F3D56"/>
<path d="M182.308 314.35C182.314 318.904 181.388 323.411 179.585 327.593C178.619 329.849 177.404 331.989 175.962 333.975C173.119 337.917 169.453 341.195 165.218 343.581C160.983 345.968 156.279 347.406 151.433 347.796C146.587 348.187 141.714 347.52 137.152 345.842C132.589 344.164 128.445 341.516 125.007 338.08C121.57 334.643 118.92 330.502 117.241 325.941C115.563 321.38 114.896 316.509 115.287 311.665C115.677 306.821 117.116 302.12 119.503 297.887C121.891 293.653 125.17 289.989 129.114 287.148C131.1 285.706 133.242 284.492 135.498 283.526C140.604 281.335 146.173 280.444 151.708 280.935C157.242 281.425 162.568 283.282 167.208 286.337C171.848 289.392 175.656 293.551 178.292 298.441C180.927 303.33 182.307 308.797 182.308 314.35Z" fill="white"/>
<path opacity="0.2" d="M181.949 309.463C180.698 300.934 176.204 293.215 169.404 287.914C172.351 292.526 174.124 297.789 174.569 303.243C175.014 308.698 174.117 314.178 171.957 319.207C170.991 321.462 169.776 323.603 168.334 325.588C165.694 329.25 162.341 332.341 158.476 334.676C154.611 337.011 150.315 338.541 145.844 339.176C141.373 339.811 136.82 339.537 132.458 338.371C128.096 337.204 124.014 335.169 120.458 332.388C123.401 337.005 127.431 340.832 132.195 343.534C136.959 346.236 142.313 347.731 147.789 347.887C153.264 348.044 158.695 346.858 163.606 344.432C168.517 342.007 172.759 338.417 175.962 333.975C177.404 331.989 178.619 329.849 179.585 327.593C182.036 321.885 182.855 315.609 181.949 309.463V309.463Z" fill="black"/>
</svg>
